<svg xmlns="http://www.w3.org/2000/svg" viewBox="0 0 1120.03 786.43"><defs><style>.a{fill:#a62d4d;}.b{fill:#eb3c3d;}.c,.k{fill:#925750;}.d{fill:#1a5968;}.e{fill:#ffeb9d;}.f{fill:#cfb13c;}.g{fill:#ea5e3f;}.h{fill:#df3738;}.i{fill:#262763;}.j{fill:#b5746c;}.k{opacity:0.5;}.l{fill:#ffac3d;}.m{fill:#ffca3d;}.n{fill:#ffb63d;}.o{fill:#eb5b59;}.p{fill:#f2a538;}.q{fill:#fff;}.r{fill:#c3e3f5;}.s{fill:#b7d5e6;}.t{fill:none;}.u{fill:#f09516;}.v{fill:#ffe994;}.w{fill:#ff8b87;}.x{fill:#00cc8d;}.y{fill:#26273c;}.z{fill:#44466b;}.aa{fill:#f4a989;}.ab{fill:#221c54;}.ac{fill:#0e0f2d;}</style></defs><title>Celebrate No Errors</title><polygon class="a" points="330.85 632.4 146.49 632.4 167.69 760.51 358.42 758.32 330.85 632.4"/><path class="b" d="M307.36,860H270.42L243.9,744.09a18,18,0,0,1,35.1-8l25.23,110.25Z" transform="translate(-114.98 -89.67)"/><path class="b" d="M491.72,860H454.78l-26.51-115.9a18,18,0,0,1,35.09-8l25.23,110.25Z" transform="translate(-114.98 -89.67)"/><rect class="c" x="515.93" y="190.07" width="36" height="40"/><path class="d" d="M499.93,632.15v-44a116.45,116.45,0,0,0,92-44.61,182.46,182.46,0,0,0,39-112.47V319.52h44V431.07a226.63,226.63,0,0,1-48.44,139.71,161.12,161.12,0,0,1-126.54,61.37Z" transform="translate(-114.98 -89.67)"/><rect class="e" x="515.93" y="212.07" width="44" height="18"/><rect class="c" x="231.07" y="283.23" width="36" height="118.73" transform="translate(-187.56 -22.67) rotate(-13.39)"/><polygon class="c" points="101.45 216.59 103.33 224.52 103.62 225.75 107.51 224.83 107.22 223.59 105.34 215.67 101.45 216.59"/><path class="d" d="M455.07,588.16v44a199.19,199.19,0,0,1-147-65,252.13,252.13,0,0,1-58.67-111l-21.16-88.87L271,357.06l21.16,88.87a208,208,0,0,0,48.41,91.61A155.1,155.1,0,0,0,455.07,588.16Z" transform="translate(-114.98 -89.67)"/><path class="e" d="M516.67,588.24V714L457,626.81l-26.42-38.58h0l16.1-20,39.38,11.92h22.62a8,8,0,0,1,8,8v.11Z" transform="translate(-114.98 -89.67)"/><path class="f" d="M516.67,617.61v13.76L499.93,608a5,5,0,0,0-3.18-2.05,4.55,4.55,0,0,0-3.44.81l-33.72,23.85-4.52-6.6,33.62-23.78a12.54,12.54,0,0,1,9.43-2.16,13,13,0,0,1,8.34,5.3Z" transform="translate(-114.98 -89.67)"/><path class="g" d="M516.67,676.22V714l-28.51-41.66,5-40.56-18.26-21.83,13.78-9.73a12.69,12.69,0,0,1,20,10.36v21.2Z" transform="translate(-114.98 -89.67)"/><path class="h" d="M508.7,631.76H493.17l-18.26-21.83,13.78-9.73a12.69,12.69,0,0,1,20,10.36v21.2Z" transform="translate(-114.98 -89.67)"/><polygon class="c" points="393.7 431.39 393.7 490.48 378.18 502.88 331.7 478.56 331.7 431.39 393.7 431.39"/><path class="d" d="M552.59,598V833a15,15,0,0,1-15,15H409.27a15,15,0,0,1-15-15V598l36.23-9.75.15,0L457,626.81,516.68,714V588.22Z" transform="translate(-114.98 -89.67)"/><circle class="i" cx="401.69" cy="671.51" r="5"/><circle class="i" cx="401.69" cy="702.01" r="5"/><rect class="e" x="227.61" y="353.15" width="44" height="18" transform="translate(-192.06 -22.02) rotate(-13.39)"/><path class="j" d="M642.05,289.79h15.6a20,20,0,0,0,20-20V233.43H629.23v18.41h-16v20.7l11.15,10.33A26,26,0,0,0,642.05,289.79Z" transform="translate(-114.98 -89.67)"/><rect class="k" x="508.98" y="143.77" width="53.69" height="25.15"/><path class="c" d="M652.65,233.48v9.91a8,8,0,0,1-8,8h0a8,8,0,0,1-8-8v-9.91a8,8,0,0,1,8-8h0A8,8,0,0,1,652.65,233.48Z" transform="translate(-114.98 -89.67)"/><path class="c" d="M638.65,233.48v9.91a8,8,0,0,1-8,8h0a8,8,0,0,1-8-8v-9.91a8,8,0,0,1,8-8h0A8,8,0,0,1,638.65,233.48Z" transform="translate(-114.98 -89.67)"/><path class="c" d="M666.65,233.48v9.91a8,8,0,0,1-8,8h0a8,8,0,0,1-8-8v-9.91a8,8,0,0,1,8-8h0A8,8,0,0,1,666.65,233.48Z" transform="translate(-114.98 -89.67)"/><path class="c" d="M680.65,237.48v5.91a8,8,0,0,1-8,8h0a8,8,0,0,1-8-8v-5.91a8,8,0,0,1,8-8h0A8,8,0,0,1,680.65,237.48Z" transform="translate(-114.98 -89.67)"/><path class="j" d="M652.65,229.48v9.91a8,8,0,0,1-8,8h0a8,8,0,0,1-8-8v-9.91a8,8,0,0,1,8-8h0A8,8,0,0,1,652.65,229.48Z" transform="translate(-114.98 -89.67)"/><path class="j" d="M638.65,229.48v9.91a8,8,0,0,1-8,8h0a8,8,0,0,1-8-8v-9.91a8,8,0,0,1,8-8h0A8,8,0,0,1,638.65,229.48Z" transform="translate(-114.98 -89.67)"/><path class="j" d="M666.65,229.48v9.91a8,8,0,0,1-8,8h0a8,8,0,0,1-8-8v-9.91a8,8,0,0,1,8-8h0A8,8,0,0,1,666.65,229.48Z" transform="translate(-114.98 -89.67)"/><path class="j" d="M680.65,233.48v5.91a8,8,0,0,1-8,8h0a8,8,0,0,1-8-8v-5.91a8,8,0,0,1,8-8h0A8,8,0,0,1,680.65,233.48Z" transform="translate(-114.98 -89.67)"/><path class="j" d="M613.23,272.54V251.3l21.43-21.43,2.83,2.83a12,12,0,0,1,0,17l-8.26,8.26v.65l5.88,1.11.32.07a25.34,25.34,0,0,1,20.64,24.51l0,.7H626.72Z" transform="translate(-114.98 -89.67)"/><path class="c" d="M654.09,285l0-.7a23.51,23.51,0,0,0-5.86-15.14,23.09,23.09,0,0,0-13.15-7.46l-.38-.08-7.45-1.41v-3.13l8.85-8.85a10,10,0,0,0,0-14.14l-2.83-2.83,2.82-2.83,2.83,2.83a14,14,0,0,1,0,19.8l-6.13,6.13,3.08.59a27,27,0,0,1,15.35,8.74,27.46,27.46,0,0,1,6.86,17.69l0,.67Z" transform="translate(-114.98 -89.67)"/><path class="j" d="M250.29,338.89l-15.1,3.92a20,20,0,0,1-24.38-14.34l-9.13-35.19,46.86-12.17,4.63,17.82,15.49-4,5.2,20-8.2,12.79A26.06,26.06,0,0,1,250.29,338.89Z" transform="translate(-114.98 -89.67)"/><rect class="k" x="203.97" y="286.13" width="53.69" height="25.15" transform="translate(-182.62 -22.11) rotate(-14.55)"/><path class="c" d="M225.89,287l2.49,9.6a8,8,0,0,0,9.75,5.73h0a8,8,0,0,0,5.73-9.75L241.37,283a8,8,0,0,0-9.75-5.74h0A8,8,0,0,0,225.89,287Z" transform="translate(-114.98 -89.67)"/><path class="c" d="M239.44,283.53l2.49,9.59a8,8,0,0,0,9.75,5.73h0a8,8,0,0,0,5.73-9.75l-2.49-9.59a8,8,0,0,0-9.75-5.74h0A8,8,0,0,0,239.44,283.53Z" transform="translate(-114.98 -89.67)"/><path class="c" d="M212.34,290.56l2.48,9.59a8,8,0,0,0,9.76,5.74h0a8,8,0,0,0,5.73-9.76l-2.49-9.59a8,8,0,0,0-9.75-5.73h0A8,8,0,0,0,212.34,290.56Z" transform="translate(-114.98 -89.67)"/><path class="c" d="M199.79,298l1.48,5.72A8,8,0,0,0,211,309.4h0a8,8,0,0,0,5.73-9.75l-1.48-5.72a8,8,0,0,0-9.76-5.73h0A8,8,0,0,0,199.79,298Z" transform="translate(-114.98 -89.67)"/><path class="j" d="M224.88,283.17l2.49,9.59a8,8,0,0,0,9.75,5.74h0a8,8,0,0,0,5.74-9.76l-2.49-9.59a8,8,0,0,0-9.76-5.73h0A8,8,0,0,0,224.88,283.17Z" transform="translate(-114.98 -89.67)"/><path class="j" d="M238.43,279.66l2.49,9.59a8,8,0,0,0,9.75,5.73h0a8,8,0,0,0,5.74-9.75l-2.49-9.59a8,8,0,0,0-9.75-5.74h0A8,8,0,0,0,238.43,279.66Z" transform="translate(-114.98 -89.67)"/><path class="j" d="M211.33,286.69l2.49,9.59a8,8,0,0,0,9.75,5.73h0a8,8,0,0,0,5.74-9.75l-2.49-9.59a8,8,0,0,0-9.76-5.73h0A8,8,0,0,0,211.33,286.69Z" transform="translate(-114.98 -89.67)"/><path class="j" d="M198.78,294.08l1.49,5.72a8,8,0,0,0,9.75,5.73h0a8,8,0,0,0,5.74-9.75l-1.49-5.72a8,8,0,0,0-9.75-5.73h0A8,8,0,0,0,198.78,294.08Z" transform="translate(-114.98 -89.67)"/><path class="j" d="M273.86,315l-1.68-6.45-3.66-14.11L242.4,279l-2,3.45a12,12,0,0,0,4.26,16.43l10.07,5.92.16.63L249.45,308l-.29.15a25.31,25.31,0,0,0-13.82,28.91l.15.68,28.43-7.38Z" transform="translate(-114.98 -89.67)"/><path class="c" d="M233.54,338.19l-.15-.68a27.43,27.43,0,0,1,2.2-18.82,27,27,0,0,1,12.72-12.34l.23-.12,2.55-1.21-7.47-4.39a14,14,0,0,1-5-19.16l2-3.45,3.45,2-2,3.45a10,10,0,0,0,3.56,13.69l10.78,6.33.78,3-7.14,3.38a23.14,23.14,0,0,0-10.91,10.56,23.43,23.43,0,0,0-1.88,16.09l.16.71Z" transform="translate(-114.98 -89.67)"/><rect class="c" x="588.18" y="570.1" width="85.6" height="36"/><rect class="e" x="629.44" y="566.1" width="18" height="44"/><rect class="d" x="647.44" y="566.1" width="85.3" height="44"/><path class="j" d="M730.79,671.38v13.51a20,20,0,0,1-20,20H670.33V656.47h18.41v-16h20.7l16,17.32A20,20,0,0,1,730.79,671.38Z" transform="translate(-114.98 -89.67)"/><rect class="c" x="565.35" y="561.54" width="25.15" height="53.69"/><rect class="l" x="558.76" y="539.01" width="26" height="87.5"/><path class="m" d="M501.76,431.16h140a0,0,0,0,1,0,0v46a70,70,0,0,1-70,70h0a70,70,0,0,1-70-70v-46a0,0,0,0,1,0,0Z"/><path class="e" d="M677.35,633.5a70,70,0,0,1-48.61-66.67v-46h15.75v50A76.05,76.05,0,0,0,677.35,633.5Z" transform="translate(-114.98 -89.67)"/><path class="n" d="M696.13,633.5a70,70,0,0,0,48.61-66.67v-46H729v50A76.05,76.05,0,0,1,696.13,633.5Z" transform="translate(-114.98 -89.67)"/><path class="m" d="M779.74,583.19h-29v-12h17V549.08h6a17,17,0,1,0-17-17h-12a29,29,0,1,1,35,28.38Z" transform="translate(-114.98 -89.67)"/><path class="m" d="M622.74,583.19h-29V560.46a29,29,0,1,1,35-28.38h-12a17,17,0,1,0-17,17h6v22.11h17Z" transform="translate(-114.98 -89.67)"/><polygon class="m" points="610.76 638.01 532.75 638.01 558.76 623.51 584.76 623.51 610.76 638.01"/><rect class="n" x="532.75" y="638.01" width="78.01" height="35.51"/><rect class="m" x="513.76" y="450.89" width="15.75" height="7.78"/><path class="h" d="M686.39,483H679.6a9.63,9.63,0,0,1-9.63-9.63v-6.8h-6.4v6.8a9.63,9.63,0,0,1-9.63,9.63h-6.8v6.39h6.8a9.64,9.64,0,0,1,9.63,9.64v6.79H670V499a9.64,9.64,0,0,1,9.63-9.64h6.79Z" transform="translate(-114.98 -89.67)"/><path class="h" d="M740,518.94h-4a5.68,5.68,0,0,1-5.69-5.68v-4h-3.77v4a5.68,5.68,0,0,1-5.69,5.68h-4v3.78h4a5.68,5.68,0,0,1,5.69,5.68v4h3.77v-4a5.68,5.68,0,0,1,5.69-5.68h4Z" transform="translate(-114.98 -89.67)"/><path class="h" d="M632.88,644.89h-5.39a7.64,7.64,0,0,1-7.65-7.65v-5.39h-5.08v5.39a7.64,7.64,0,0,1-7.65,7.65h-5.39V650h5.39a7.65,7.65,0,0,1,7.65,7.65V663h5.08v-5.39a7.65,7.65,0,0,1,7.65-7.65h5.39Z" transform="translate(-114.98 -89.67)"/><path class="c" d="M670.38,679.89h9.9a8,8,0,0,0,8-8h0a8,8,0,0,0-8-8h-9.9a8,8,0,0,0-8,8h0A8,8,0,0,0,670.38,679.89Z" transform="translate(-114.98 -89.67)"/><path class="c" d="M670.38,665.89h9.9a8,8,0,0,0,8-8h0a8,8,0,0,0-8-8h-9.9a8,8,0,0,0-8,8h0A8,8,0,0,0,670.38,665.89Z" transform="translate(-114.98 -89.67)"/><path class="c" d="M670.38,693.89h9.9a8,8,0,0,0,8-8h0a8,8,0,0,0-8-8h-9.9a8,8,0,0,0-8,8h0A8,8,0,0,0,670.38,693.89Z" transform="translate(-114.98 -89.67)"/><path class="c" d="M674.38,707.89h5.9a8,8,0,0,0,8-8h0a8,8,0,0,0-8-8h-5.9a8,8,0,0,0-8,8h0A8,8,0,0,0,674.38,707.89Z" transform="translate(-114.98 -89.67)"/><path class="j" d="M666.38,679.89h9.9a8,8,0,0,0,8-8h0a8,8,0,0,0-8-8h-9.9a8,8,0,0,0-8,8h0A8,8,0,0,0,666.38,679.89Z" transform="translate(-114.98 -89.67)"/><path class="j" d="M666.38,665.89h9.9a8,8,0,0,0,8-8h0a8,8,0,0,0-8-8h-9.9a8,8,0,0,0-8,8h0A8,8,0,0,0,666.38,665.89Z" transform="translate(-114.98 -89.67)"/><path class="j" d="M666.38,693.89h9.9a8,8,0,0,0,8-8h0a8,8,0,0,0-8-8h-9.9a8,8,0,0,0-8,8h0A8,8,0,0,0,666.38,693.89Z" transform="translate(-114.98 -89.67)"/><path class="j" d="M670.38,707.89h5.9a8,8,0,0,0,8-8h0a8,8,0,0,0-8-8h-5.9a8,8,0,0,0-8,8h0A8,8,0,0,0,670.38,707.89Z" transform="translate(-114.98 -89.67)"/><path class="j" d="M709.44,640.47H688.2L666.77,661.9l2.83,2.83a12,12,0,0,0,17,0l8.26-8.26h.65l1.11,5.88.07.32a25.34,25.34,0,0,0,24.51,20.64l.7,0V654Z" transform="translate(-114.98 -89.67)"/><path class="c" d="M721.81,685.33l-.7,0a27.42,27.42,0,0,1-17.66-6.86A27.09,27.09,0,0,1,694.69,663l-.06-.26-.52-2.76L688,666.14a14,14,0,0,1-19.8,0l-2.83-2.83,2.83-2.82,2.83,2.83a10,10,0,0,0,14.15,0l8.84-8.84h3.13l1.48,7.77a23.19,23.19,0,0,0,7.48,13.21,23.47,23.47,0,0,0,15.11,5.86l.72,0Z" transform="translate(-114.98 -89.67)"/><rect class="o" x="523.76" y="673.51" width="94" height="6"/><rect class="e" x="553.76" y="646.76" width="36" height="12"/><rect class="p" x="555.76" y="648.76" width="36" height="12"/><rect class="m" x="555.76" y="648.76" width="34" height="10"/><path class="q" d="M856.72,534.19,822.67,763.62a10,10,0,0,1-9.88,8.53,10.53,10.53,0,0,1-1.48-.11,10,10,0,0,1-8.43-11.36l34.06-229.43a10,10,0,0,1,9.87-8.53,9.43,9.43,0,0,1,1.49.11A10,10,0,0,1,856.72,534.19Z" transform="translate(-114.98 -89.67)"/><path class="r" d="M1109.61,534.19l-34,229.43a10,10,0,0,1-9.88,8.53H812.79a10,10,0,0,0,9.88-8.53l34.05-229.43a10,10,0,0,0-8.42-11.36,9.43,9.43,0,0,0-1.49-.11H1099.7a9.43,9.43,0,0,1,1.49.11A10,10,0,0,1,1109.61,534.19Z" transform="translate(-114.98 -89.67)"/><rect class="i" x="821.91" y="563.76" width="47.72" height="118.72"/><path class="s" d="M1059.42,806.35A41,41,0,0,1,1025.73,824H868V812h71.66a29,29,0,0,0,28.8-32.38l-14.8-126.18H936.89l0-12h79.61l47.61,127.19A41,41,0,0,1,1059.42,806.35Z" transform="translate(-114.98 -89.67)"/><path class="q" d="M939.62,824H868V812h71.65a29,29,0,0,0,28.8-32.37L953.63,653.44H936.9v-12h27.4l16,136.78A41,41,0,0,1,939.62,824Z" transform="translate(-114.98 -89.67)"/><path class="t" d="M905.19,568.12l-7,46.94Z" transform="translate(-114.98 -89.67)"/><polygon class="i" points="792.24 478.45 785.26 525.39 781.23 525.39 788.18 478.45 792.24 478.45"/><path class="t" d="M919.67,560.6h0Z" transform="translate(-114.98 -89.67)"/><path class="t" d="M918.55,568.12l-7,46.94Z" transform="translate(-114.98 -89.67)"/><polygon class="i" points="805.59 478.45 798.62 525.39 794.58 525.39 801.54 478.45 805.59 478.45"/><path class="t" d="M931.9,568.12l-7,46.94Z" transform="translate(-114.98 -89.67)"/><polygon class="i" points="818.95 478.45 811.98 525.39 807.92 525.39 814.89 478.45 818.95 478.45"/><path class="t" d="M945.25,568.12l-7,46.94Z" transform="translate(-114.98 -89.67)"/><polygon class="i" points="832.29 478.45 825.33 525.39 821.28 525.39 828.24 478.45 832.29 478.45"/><path class="t" d="M958.6,568.12l-7,46.94Z" transform="translate(-114.98 -89.67)"/><polygon class="i" points="845.64 478.45 838.67 525.39 834.63 525.39 841.61 478.45 845.64 478.45"/><path class="t" d="M972,568.12l-7,46.94Z" transform="translate(-114.98 -89.67)"/><polygon class="i" points="859 478.45 852.03 525.39 847.99 525.39 854.96 478.45 859 478.45"/><path class="t" d="M985.31,568.12l-7,46.94Z" transform="translate(-114.98 -89.67)"/><polygon class="i" points="872.36 478.45 865.38 525.39 861.35 525.39 868.3 478.45 872.36 478.45"/><path class="t" d="M998.66,568.12l-7,46.94Z" transform="translate(-114.98 -89.67)"/><polygon class="i" points="885.71 478.45 878.74 525.39 874.7 525.39 881.66 478.45 885.71 478.45"/><path class="t" d="M1012,568.12l-7,46.94Z" transform="translate(-114.98 -89.67)"/><polygon class="i" points="899.07 478.45 892.1 525.39 888.04 525.39 895.01 478.45 899.07 478.45"/><path class="t" d="M1025.37,568.12l-7,46.94Z" transform="translate(-114.98 -89.67)"/><polygon class="i" points="912.41 478.45 905.45 525.39 901.4 525.39 908.37 478.45 912.41 478.45"/><path class="t" d="M1038.72,568.12l-7,46.94Z" transform="translate(-114.98 -89.67)"/><polygon class="i" points="925.76 478.45 918.79 525.39 914.75 525.39 921.73 478.45 925.76 478.45"/><path class="t" d="M1052.08,568.12l-7,46.94Z" transform="translate(-114.98 -89.67)"/><polygon class="i" points="939.13 478.45 932.15 525.39 928.11 525.39 935.08 478.45 939.13 478.45"/><path class="m" d="M1215,864H135a20,20,0,0,1-20-20h0a20,20,0,0,1,20-20H1215a20,20,0,0,1,20,20h0A20,20,0,0,1,1215,864Z" transform="translate(-114.98 -89.67)"/><rect class="u" x="30" y="774.43" width="1060.03" height="12"/><path class="v" d="M233.58,842H139a4,4,0,0,1-4-4h0a4,4,0,0,1,4-4h94.59a4,4,0,0,1,4,4h0A4,4,0,0,1,233.58,842Z" transform="translate(-114.98 -89.67)"/><path class="v" d="M275.85,842H254.22a4,4,0,0,1-4-4h0a4,4,0,0,1,4-4h21.63a4,4,0,0,1,4,4h0A4,4,0,0,1,275.85,842Z" transform="translate(-114.98 -89.67)"/><path class="w" d="M396.3,143.55c-25.75-10.9-26.6-31.64-23.44-41.09l11.38,3.8-5.69-1.9,5.71,1.85c-.54,1.74-4.68,17.23,16.72,26.29Z" transform="translate(-114.98 -89.67)"/><path class="m" d="M457.36,236.06c-10.58,0-17.41-3.22-20.28-9.57-5.84-12.88,9.82-31.73,13-35.37l9,7.9c-6.64,7.6-12.84,18.72-11.11,22.52.55,1.22,3.3,2.52,9.35,2.52Z" transform="translate(-114.98 -89.67)"/><path class="q" d="M577.35,128c-6.74,0-13.26-3.19-17.78-5.4a56.09,56.09,0,0,0-5.73-2.56,27.73,27.73,0,0,0-.36,6.52l-12,.39c-.21-6.33.25-14,5.65-17.55s11.71-.52,17.71,2.42c10.67,5.23,15.5,6.53,20.27-1.82l10.42,6C590.28,125.16,583.71,128,577.35,128Z" transform="translate(-114.98 -89.67)"/><path class="x" d="M347,320.1,335,318.68c1.92-16,12.45-17.3,18.75-18.06,5.17-.62,5.74-1.05,6.38-2.93,1-3.07.33-5.08-1.14-8.67-1.94-4.74-4.87-11.9,2.79-20.19l8.82,8.15c-2.48,2.67-2.18,3.41-.5,7.5s3.93,9.61,1.39,17.07c-3.2,9.4-11.4,10.39-16.3,11C349.48,313.23,347.75,313.44,347,320.1Z" transform="translate(-114.98 -89.67)"/><path class="m" d="M161.09,551.56c-.45,0-.91,0-1.38,0l.68-12c2.09.12,3.75-.27,4.41-1,.8-.93.93-3.19.33-6.06-.81-3.91,0-6.91,2.24-8.91,3.54-3.07,7.82-1.52,11.26-.29,4.19,1.51,6.53,2.07,7.71.92.62-.61-.48-3.67-1.28-5.9-2-5.68-6.27-17.5,7.88-24.23l5.16,10.83c-4,1.92-4.15,2.62-1.74,9.35,1.79,5,4.49,12.54-1.63,18.52-5.53,5.41-12.35,4.31-17.22,2.81a15.81,15.81,0,0,1-3.62,10.8C171,549.73,166.46,551.56,161.09,551.56Z" transform="translate(-114.98 -89.67)"/><path class="x" d="M303.79,676.32c-7.67,0-13.06-1.84-16.48-5.61-4.95-5.47-4.07-12.85-3.28-19.36.51-4.26,1-8.65-.26-11.1a22.9,22.9,0,0,0-5,.41c-6.46,1-19.91,2.93-22.88-15.26l11.85-1.93c1.06,6.53,2.32,6.34,9.28,5.32,5.14-.76,12.92-1.91,17.11,5.32,3.4,5.88,2.58,12.68,1.86,18.68-.45,3.76-1,8.45.27,9.87.38.42,2.11,1.77,8.36,1.65l.25,12Z" transform="translate(-114.98 -89.67)"/><path class="q" d="M1067.44,461.91c-9,0-21-10.1-22.49-22.21l11.92-1.42c.66,5.58,5.84,9.84,8.9,11.18a10,10,0,0,1,3.43-5.39c4.55-3.67,11.15-2.66,17-1.77,2,.31,5.13.78,6.1.59a2.4,2.4,0,0,0-.91.47l7.2,9.6c-3.74,2.8-8.82,2-14.2,1.2a45.48,45.48,0,0,0-7.09-.7,9.53,9.53,0,0,1-9.51,8.45Z" transform="translate(-114.98 -89.67)"/><path class="w" d="M747.79,298.09a21.17,21.17,0,0,1-12.57-3.65c-8.08-5.77-8-15.56-8-16.65l12,.35-6-.18,6,.11s0,4.54,3,6.64c3.28,2.27,9.75,1.76,18.23-1.44l4.24,11.22Q755.19,298.09,747.79,298.09Z" transform="translate(-114.98 -89.67)"/><path class="m" d="M792.15,422.19a35.48,35.48,0,0,1-8.43-1.15l2.85-11.65c7.74,1.89,8.34.88,10.89-3.4,3.49-5.84,8.76-14.67,29-14.67v12c-13.41,0-15.85,4.08-18.67,8.82C804.58,417.48,800.89,422.19,792.15,422.19Z" transform="translate(-114.98 -89.67)"/><path class="m" d="M713.31,146.12c-.32-.54-1.65-2.17-2.71-3.47-6.32-7.81-15-18.49-10.45-26.88,4.05-7.48,15.11-6.34,18.75-6,5.41.56,9.24-.47,10.51-2.82s.39-6.55-2.21-9.79l9.34-7.53c5.69,7.06,7.07,16.32,3.42,23-2.17,4-8,10.5-22.29,9a21.9,21.9,0,0,0-6.65.06c.94,3.46,6.84,10.74,8.9,13.29a49,49,0,0,1,3.67,4.84Z" transform="translate(-114.98 -89.67)"/><path class="w" d="M950.39,302.09a25.13,25.13,0,0,1-3.66-.28l1.78-11.87c5.58.84,7.37-1.57,11-10.88,2.47-6.24,5.26-13.31,12.47-15.55,5.64-1.74,12.19.1,20.65,5.79L986,279.25c-7.25-4.88-9.93-4.42-10.39-4.27-1.71.53-3.46,4.94-4.86,8.49C967.91,290.58,963.35,302.09,950.39,302.09Z" transform="translate(-114.98 -89.67)"/><path class="x" d="M848.55,272c-7.67,0-13.07-1.84-16.48-5.61-5-5.48-4.07-12.85-3.29-19.36.52-4.26,1.05-8.66-.26-11.1a22.27,22.27,0,0,0-5,.41c-6.46.95-19.91,2.93-22.88-15.26l11.84-1.93c1.07,6.52,2.32,6.34,9.29,5.31,5.14-.76,12.92-1.9,17.1,5.33,3.41,5.88,2.59,12.68,1.87,18.67-.46,3.77-1,8.46.27,9.88.38.42,2.1,1.77,8.36,1.65l.25,12Z" transform="translate(-114.98 -89.67)"/><path class="y" d="M524.36,375.61,565,491.15l-5.72,30.1a60.68,60.68,0,0,1-2,7.5,57.82,57.82,0,0,1-35.48,36,57.08,57.08,0,0,1-34.88,1l-39.58-11.39-15-4.32-16.87-48a17.21,17.21,0,0,1-5,5.22l-28.65-81.53Z" transform="translate(-114.98 -89.67)"/><circle class="j" cx="541.44" cy="443.45" r="17.3" transform="translate(-115.69 796.36) rotate(-78.54)"/><path class="j" d="M509.88,353.65l46.71,132.91-5.86,30.91a44.66,44.66,0,0,1-56.27,34.6l-9-2.57-59.36-17.09L379.43,399.5Z" transform="translate(-114.98 -89.67)"/><rect class="c" x="415.77" y="447.59" width="125.53" height="12.32" transform="translate(-238.37 94.67) rotate(-19.36)"/><polygon class="y" points="346.58 346.05 316.43 363.69 319.69 372.96 352.04 361.59 346.58 346.05"/><polygon class="y" points="382.91 333.28 417.46 328.18 420.72 337.45 388.37 348.82 382.91 333.28"/><polygon class="c" points="347.96 395.66 370.52 459.83 311.16 442.74 300.48 412.35 347.96 395.66"/><polygon class="z" points="368.36 431.36 379.79 463.89 311.99 444.37 300.56 411.84 368.36 431.36"/><path class="c" d="M545.91,456.17l10.68,30.39-5.86,30.91a44.65,44.65,0,0,1-1.52,5.84l-21.36-60.79Z" transform="translate(-114.98 -89.67)"/><rect class="y" x="535.64" y="380.72" width="6.38" height="91.33" transform="translate(-225.88 113.12) rotate(-19.36)"/><path class="aa" d="M417.11,487.15a17.3,17.3,0,1,1-17.78-11.51,17,17,0,0,1,7.18.92A17.31,17.31,0,0,1,417.11,487.15Z" transform="translate(-114.98 -89.67)"/><polygon class="z" points="433.46 373.72 441.61 396.88 438.22 414.73 426.12 412.43 433.46 373.72"/><path class="y" d="M497.28,479.26l-17.4,6.12a21.23,21.23,0,0,0-14.2,19.5L464.53,550l61.83,12Z" transform="translate(-114.98 -89.67)"/><path class="y" d="M497.28,479.26l16.09-5.65a21.24,21.24,0,0,1,24.39,7.77l18.44,26a13.73,13.73,0,0,1-.33,16.3L526.36,562Z" transform="translate(-114.98 -89.67)"/><path class="q" d="M526.75,488l-2.45,18.48a12.31,12.31,0,0,1-8.11,10l-10.38,3.64a12.31,12.31,0,0,1-12.59-2.71l-13.47-12.9Z" transform="translate(-114.98 -89.67)"/><polygon class="y" points="284.93 329.68 332.38 464.67 317.35 460.35 272.91 333.9 284.93 329.68"/><path class="y" d="M453.47,341.59,415.8,354.83a55.61,55.61,0,0,0-34,70.89h0l142.57-50.11h0A55.6,55.6,0,0,0,453.47,341.59Z" transform="translate(-114.98 -89.67)"/><rect class="y" x="393.87" y="383.92" width="125.52" height="15.04" transform="translate(-218.95 83.89) rotate(-19.36)"/><path class="ab" d="M449.91,476.75l-6-.59A16.42,16.42,0,0,1,472,466.29l-4.28,4.19a10.43,10.43,0,0,0-17.84,6.27Z" transform="translate(-114.98 -89.67)"/><path class="ab" d="M514.82,453.94l-6-.59a16.42,16.42,0,0,1,28.09-9.87l-4.29,4.19a10.42,10.42,0,0,0-17.83,6.27Z" transform="translate(-114.98 -89.67)"/><path class="ac" d="M551.69,414.75h0l-159.05,55.9a11.7,11.7,0,0,0-7.15,14.9l4,11.31,6-2.11-4-11.31a5.32,5.32,0,0,1,3.25-6.77L410.91,471a17.19,17.19,0,0,1,20.7,7.78h0l3.64,6.46a13.8,13.8,0,0,0,16.61,6.25l24.61-8.65a13.88,13.88,0,0,0,9-15.69l-2.86-14.59,11.83-4.16,6.9,13.18a13.88,13.88,0,0,0,16.81,6.62l24.61-8.65a13.78,13.78,0,0,0,9-15.26h0L549.11,428a6.36,6.36,0,0,1,4.17-7l.52-.18-2.11-6Zm-72.5,53.62a7.48,7.48,0,0,1-4.83,8.45l-24.61,8.64a7.41,7.41,0,0,1-8.94-3.36l-10.18-18,44.63-15.69Zm66.3-23.06a7.44,7.44,0,0,1-4.87,8.22L516,462.18a7.48,7.48,0,0,1-9.05-3.57l-9.46-18.06,44.63-15.68,3.22,19.6.14.84Z" transform="translate(-114.98 -89.67)"/><path class="j" d="M417.09,487.11A17.3,17.3,0,1,1,395,476.52,17.31,17.31,0,0,1,417.09,487.11Z" transform="translate(-114.98 -89.67)"/></svg>